<svg id="Layer_1" data-name="Layer 1" xmlns="http://www.w3.org/2000/svg" viewBox="0 0 512 512"><defs><style>.cls-1{fill:#141f38;}</style></defs><title>box-glyph</title><path class="cls-1" d="M409.58,99.32,188.75,17.4,217,7A112.7,112.7,0,0,1,295,7l187.66,69.3a44.51,44.51,0,0,1,17.94,12.42L428.92,115A39.07,39.07,0,0,0,409.58,99.32ZM511.5,112l-76.3,28v314l47.48-17.53A45.06,45.06,0,0,0,512,394.42v-276A44.55,44.55,0,0,0,511.5,112ZM371.2,162V477.72l38.4-14.18V136.16a13.65,13.65,0,0,0-8.88-12.77L151.79,31,113.42,45.21l237.94,88.24A30.54,30.54,0,0,1,371.2,162ZM328,152.15,76.45,58.87,29.32,76.27A44.53,44.53,0,0,0,11.65,88.36L256,178.59ZM345.6,173l-76.8,28.22V512A112.37,112.37,0,0,0,295,505.85l50.57-18.68ZM217,505.85,29.31,436.55A45.06,45.06,0,0,1,0,394.42v-276a44.58,44.58,0,0,1,.53-6.8L243.2,201.21V512A112.41,112.41,0,0,1,217,505.85ZM158,336.88,94,313.24a12.83,12.83,0,0,0-8.85,24.08l64,23.64A12.83,12.83,0,0,0,158,336.88Zm12.8-50.64-89.6-33.09a12.83,12.83,0,0,0-8.85,24.08L162,310.32a12.83,12.83,0,0,0,8.85-24.08Z"/></svg>